<?xml version="1.0" encoding="utf-8"?>
<!-- Generator: Adobe Illustrator 24.2.1, SVG Export Plug-In . SVG Version: 6.00 Build 0)  -->
<svg version="1.1" id="Layer_1" xmlns="http://www.w3.org/2000/svg" xmlns:xlink="http://www.w3.org/1999/xlink" x="0px" y="0px"
	 viewBox="0 0 213 216" style="enable-background:new 0 0 213 216;" xml:space="preserve">
<style type="text/css">
	.st0{fill:#FFFFFF;}
	.st1{fill:#FF0000;}
</style>
<g>
	<circle class="st0" cx="107" cy="109" r="106.5"/>
</g>
<g>
	<path class="st1" d="M157.43,31.42c0.81,0.27,1.57,0.54,2.29,0.81c0.72,0.27,1.43,0.54,2.15,0.81c-0.45,1.79,0.31,2.78,2.28,2.96
		c1.61,0.18,2.84,0.76,3.7,1.75c0.85,0.99,1.68,1.97,2.49,2.96c0.36,0.54,0.54,1.03,0.54,1.48c0.09,2.24,0.16,4.46,0.2,6.65
		c0.04,2.2-0.61,4.46-1.95,6.79c-0.99,1.97-1.86,3.99-2.62,6.05c-0.76,2.06-1.73,4.08-2.89,6.05c-1.17,1.97-2.2,3.92-3.09,5.85
		c-0.9,1.93-1.84,3.92-2.82,5.98c-0.18,0.45-0.4,0.81-0.67,1.07c-1.17,1.53-2,2.94-2.49,4.23c-0.49,1.3-0.92,3.02-1.28,5.17
		c-0.09,0.45-0.25,0.99-0.47,1.61c-0.22,0.63-0.52,1.26-0.87,1.88c-0.36,0.63-0.7,1.23-1.01,1.81c-0.31,0.58-0.6,1.01-0.87,1.28
		c-0.18,0.18-0.32,0.29-0.4,0.34c-0.09,0.05-0.18,0.16-0.27,0.34c0.18,0.99-0.05,1.81-0.67,2.49c-0.63,0.67-1.17,1.37-1.61,2.08
		c-0.36,0.45-0.65,0.92-0.87,1.41c-0.22,0.49-0.25,1.05-0.07,1.68c0.09,0.45-0.07,0.92-0.47,1.41c-0.4,0.49-0.74,1.01-1.01,1.55
		c-0.45,0.99-0.81,1.9-1.08,2.75c-0.27,0.85-0.63,1.77-1.08,2.75c-0.18,0.45-0.38,0.83-0.6,1.14c-0.22,0.31-0.47,0.65-0.74,1.01
		c-0.18,0.27-0.29,0.56-0.34,0.87c-0.05,0.31-0.16,0.6-0.34,0.87c0,0.18,0.04,0.34,0.13,0.47c0.09,0.13,0.04,0.25-0.13,0.34
		c-0.54,0.63-0.87,1.3-1.01,2.02c-0.13,0.72-0.29,1.43-0.47,2.15c-0.09,0.63-0.27,1.19-0.54,1.68c-0.27,0.49-0.58,1.01-0.94,1.55
		c-0.27,0.45-0.47,0.92-0.6,1.41c-0.13,0.49-0.34,0.96-0.61,1.41c-0.18,0.45-0.36,0.83-0.54,1.14c-0.18,0.31-0.36,0.7-0.54,1.14
		c-0.36,0.99-0.74,2-1.14,3.02c-0.4,1.03-0.83,2.08-1.28,3.16c-0.99,2.33-1.77,4.66-2.35,6.99c-0.58,2.33-1.46,4.66-2.62,6.99
		c-0.45,0.99-0.79,1.97-1.01,2.96c-0.22,0.99-0.65,1.93-1.28,2.82c0.27,0.99,0.16,1.86-0.34,2.62c-0.49,0.76-1.01,1.5-1.55,2.22
		c-0.18,0.36-0.27,0.63-0.27,0.81c-0.27,2.6-1.03,5.33-2.29,8.2c-0.09,0.18-0.16,0.4-0.2,0.67c-0.05,0.27-0.11,0.49-0.2,0.67
		c-0.18,1.25-0.4,2.55-0.67,3.9s-0.49,2.64-0.67,3.9c-0.18,0.18-0.27,0.36-0.27,0.54c-1.08,1.52-1.64,3.09-1.68,4.7
		c-0.05,1.61-0.25,3.23-0.61,4.84c-0.54,3.13-2.15,5.64-4.84,7.53c-0.81-0.36-1.64-0.63-2.49-0.81c-0.85-0.18-1.59-0.54-2.22-1.08
		c-1.17-1.08-2.06-2.6-2.69-4.57c-1.08-2.78-1.39-5.87-0.94-9.27c0.18-2.06,0.29-4.08,0.34-6.05c0.04-1.97,0.25-3.99,0.61-6.05
		c0.27-1.88,0.63-3.76,1.08-5.64c0.45-1.88,0.94-3.76,1.48-5.65c0.98-3.67,2.04-7.3,3.16-10.89c1.12-3.58,2.31-7.17,3.56-10.75
		c1.52-4.57,3.11-9.09,4.77-13.57c1.66-4.48,3.34-9,5.04-13.57c0.99-2.87,2.02-5.67,3.09-8.4c1.08-2.73,2.1-5.49,3.09-8.27
		c0.27-0.72,0.58-1.46,0.94-2.22c0.36-0.76,0.67-1.5,0.94-2.22c1.88-4.39,3.72-8.74,5.51-13.04c1.79-4.3,3.58-8.65,5.38-13.04
		c1.25-3.04,2.51-6.09,3.76-9.14c1.25-3.04,2.51-6.09,3.76-9.14c0.09-0.18,0.16-0.4,0.2-0.67c0.04-0.27,0.11-0.67,0.2-1.21
		c-0.99,0.72-1.86,1.37-2.62,1.95c-0.76,0.58-1.41,1.23-1.95,1.95c-0.99,1.26-2.06,2.42-3.23,3.49c-1.17,1.08-2.11,2.38-2.82,3.9
		c-0.18,0.18-0.36,0.36-0.54,0.54c-0.18,0.18-0.36,0.36-0.54,0.54c-4.12,3.85-7.48,8.06-10.08,12.63c-0.45,0.72-1.01,1.41-1.68,2.08
		s-1.23,1.37-1.68,2.08c-0.99,1.88-2.15,3.65-3.49,5.31c-1.34,1.66-2.38,3.47-3.09,5.44c-0.45,1.34-1.12,2.6-2.02,3.76
		c-0.9,1.17-1.75,2.38-2.55,3.63c-0.18,0.36-0.4,0.63-0.67,0.81c-0.45,0.45-0.99,0.9-1.61,1.34c-0.63,0.45-0.99,1.17-1.08,2.15
		c0,0.18-0.16,0.36-0.47,0.54c-0.31,0.18-0.6,0.36-0.87,0.54c0.18,0.72,0.31,1.39,0.4,2.02c0.09,0.63,0.22,1.39,0.4,2.29
		c-0.99,1.61-2.06,3.32-3.22,5.11c-1.17,1.79-2.29,3.63-3.36,5.51c-0.72,1.17-1.37,2.35-1.95,3.56c-0.58,1.21-1.19,2.44-1.81,3.7
		c-3.5,6.54-6.97,13.04-10.42,19.49c-3.45,6.45-6.88,12.95-10.28,19.49c-0.72,1.43-1.43,2.8-2.15,4.1c-0.72,1.3-1.66,2.53-2.82,3.7
		c-0.45,0.45-0.87,0.83-1.28,1.14c-0.4,0.31-0.79,0.65-1.14,1.01c-0.63,0.45-1.26,0.76-1.88,0.94c-0.63,0.18-1.17-0.04-1.61-0.67
		l-0.27-0.13c-1.26-0.09-2.22-0.38-2.89-0.87c-0.67-0.49-1.14-1.12-1.41-1.88c-0.27-0.76-0.43-1.59-0.47-2.49
		c-0.05-0.89-0.07-1.79-0.07-2.69c0.18-1.7,0.45-3.38,0.81-5.04c0.36-1.66,0.76-3.29,1.21-4.91c0.99-3.4,2.02-6.76,3.09-10.08
		c1.08-3.31,2.1-6.67,3.09-10.08c1.08-3.58,2.13-7.17,3.16-10.75c1.03-3.58,2.04-7.17,3.02-10.75c0.72-2.6,1.41-5.22,2.08-7.86
		c0.67-2.64,1.32-5.26,1.95-7.86c0.27-0.98,0.49-1.99,0.67-3.02c0.18-1.03,0.36-2.13,0.54-3.29c-0.27,0.18-0.49,0.29-0.67,0.34
		c-0.18,0.05-0.36,0.16-0.54,0.34c-0.81,1.26-1.61,2.47-2.42,3.63c-0.81,1.17-1.57,2.38-2.29,3.63c-1.52,2.69-2.96,5.35-4.3,8
		c-1.34,2.64-2.73,5.31-4.17,8c-1.88,3.41-3.72,6.68-5.51,9.81c-0.45,0.81-0.9,1.64-1.34,2.49c-0.45,0.85-0.9,1.68-1.34,2.49
		c-0.54,0.63-1.26,1.34-2.15,2.15c0.36,1.08,0.29,2.11-0.2,3.09c-0.49,0.99-1.14,2.02-1.95,3.09c-0.72,0.99-1.34,2.06-1.88,3.23
		c-0.54,1.17-1.08,2.33-1.61,3.49c-0.81,1.7-1.61,3.36-2.42,4.97c-0.81,1.61-1.48,3.27-2.02,4.97c-0.63,2.15-1.48,4.23-2.55,6.25
		c-1.08,2.02-1.7,4.19-1.88,6.52c0,0.54-0.25,1.1-0.74,1.68c-0.49,0.58-0.96,1.1-1.41,1.55c-0.72,0.72-1.07,1.39-1.07,2.02
		c0,0.63,0.13,1.3,0.4,2.02c0.27,1.08,0.34,1.77,0.2,2.08c-0.13,0.31-0.56,0.92-1.28,1.81c-0.63-0.27-1.19-0.51-1.68-0.74
		c-0.49-0.22-1.05-0.42-1.68-0.61c-0.54-0.27-1.05-0.56-1.55-0.87c-0.49-0.31-0.96-0.83-1.41-1.55c-1.25-1.97-2.02-4.03-2.28-6.18
		c-0.27-2.15-0.27-4.39,0-6.72c0.45-5.29,1.48-10.42,3.09-15.39s3.45-9.97,5.51-14.99c0.81-1.79,1.57-3.61,2.28-5.44
		c0.72-1.83,1.43-3.65,2.15-5.44c0.63-1.25,1.25-2.51,1.88-3.76c0.63-1.25,1.25-2.51,1.88-3.76c1.08-2.24,2.13-4.48,3.16-6.72
		c1.03-2.24,2.13-4.48,3.29-6.72c1.52-3.04,3.04-6.03,4.57-8.94c1.52-2.91,3.09-5.85,4.7-8.8c1.43-2.78,2.87-5.49,4.3-8.13
		c1.43-2.64,2.87-5.35,4.3-8.13c0.18-0.18,0.34-0.42,0.47-0.74c0.13-0.31,0.25-0.56,0.34-0.74c-0.36-1.7,0.36-2.91,2.15-3.63
		c0.72-0.27,1.32-0.69,1.81-1.28c0.49-0.58,1.23-0.69,2.22-0.34c0.18,0.09,0.38,0.09,0.6,0c0.22-0.09,0.47-0.16,0.74-0.2
		c0.27-0.04,0.49,0,0.67,0.13c0.18,0.13,0.27,0.38,0.27,0.74c0,0.18,0.18,0.27,0.54,0.27c1.25-0.45,2.31-0.45,3.16,0
		c0.85,0.45,1.72,0.9,2.62,1.34c0.72,0.36,1.39,0.67,2.02,0.94c0.63,0.27,1.16,0.63,1.61,1.08c0.63,0.72,1.39,1.12,2.29,1.21
		c0.89,0.09,1.61,0.49,2.15,1.21c0.89,1.08,1.3,2.15,1.21,3.23c-0.18,1.43-0.36,2.85-0.54,4.23c-0.18,1.39-0.45,2.76-0.81,4.1
		c-0.18,0.99-0.43,2-0.74,3.02c-0.31,1.03-0.6,2.04-0.87,3.02c-0.72,2.6-1.43,5.22-2.15,7.86c-0.72,2.64-1.52,5.26-2.42,7.86
		c-0.45,1.17-0.72,2.33-0.81,3.49c-0.09,1.17-0.36,2.28-0.81,3.36c-0.45,1.17-0.92,2.29-1.41,3.36c-0.49,1.08-0.83,2.2-1.01,3.36
		c-0.27,0.99-0.49,1.91-0.67,2.76c-0.18,0.85-0.54,1.73-1.08,2.62c-0.18,0.45-0.18,0.99,0,1.61c-0.09,0.18-0.11,0.4-0.07,0.67
		c0.04,0.27,0.02,0.49-0.07,0.67c-0.45,1.26-0.87,2.44-1.28,3.56c-0.4,1.12-0.83,2.31-1.28,3.56c-0.36,1.08-0.67,2.13-0.94,3.16
		c-0.27,1.03-0.63,2.04-1.08,3.02c-0.54,1.34-0.94,2.69-1.21,4.03c-0.27,1.34-0.85,2.64-1.75,3.9c-0.18,0.18-0.36,0.63-0.54,1.34
		c-0.45,1.34-0.83,2.71-1.14,4.1c-0.31,1.39-0.69,2.8-1.14,4.23c-0.27,0.72-0.58,1.46-0.94,2.22c-0.36,0.76-0.72,1.5-1.08,2.22
		c0,0.18-0.02,0.4-0.07,0.67c-0.05,0.27-0.16,0.67-0.34,1.21c0.45-0.45,0.78-0.76,1.01-0.94c0.22-0.18,0.42-0.36,0.6-0.54
		c1.79-3.23,3.56-6.47,5.31-9.74c1.75-3.27,3.56-6.56,5.44-9.88c2.24-4.03,4.5-8.08,6.79-12.16c2.29-4.08,4.59-8.13,6.92-12.16
		c1.79-3.14,3.65-6.23,5.58-9.27c1.93-3.04,3.88-6.09,5.85-9.14c1.88-3.04,3.78-6.05,5.71-9c1.93-2.96,3.87-5.91,5.85-8.87
		c2.6-3.94,5.38-7.73,8.33-11.36c2.96-3.63,6.05-7.14,9.27-10.55c2.51-2.78,5.11-5.4,7.79-7.86c2.69-2.46,5.6-4.77,8.74-6.92
		c0.54-0.36,1.1-0.67,1.68-0.94C156.47,31.82,156.99,31.6,157.43,31.42z M109.59,169.58c-1.61,1.61-2.15,3.76-1.61,6.45
		c0.27-1.08,0.54-2.11,0.81-3.09C109.05,171.95,109.32,170.83,109.59,169.58z M108.38,90.55c0.18-0.18,0.36-0.34,0.54-0.47
		c0.18-0.13,0.27-0.25,0.27-0.34c0-0.27-0.18-0.49-0.54-0.67c-0.27,0.27-0.45,0.49-0.54,0.67C108.02,89.83,108.11,90.1,108.38,90.55
		z M112.01,159.36c-0.99,0.63-1.52,1.34-1.61,2.15c-0.09,0.81-0.27,1.57-0.54,2.28c-0.27,0.72-0.49,1.48-0.67,2.29
		c-0.18,0.81-0.36,1.61-0.54,2.42c0.81,0,1.39-0.27,1.75-0.81c0.18-0.45,0.27-0.85,0.27-1.21c0-0.36,0.04-0.76,0.13-1.21
		c0.18-0.98,0.38-1.97,0.61-2.96C111.63,161.33,111.83,160.35,112.01,159.36z M111.07,158.02c0.98-0.45,1.52-0.81,1.61-1.07
		c0.09-0.27,0-0.94-0.27-2.02c-0.27,0.72-0.52,1.3-0.74,1.75C111.45,157.12,111.25,157.57,111.07,158.02z M113.22,153.99
		c0.45-0.89,0.83-1.68,1.14-2.35c0.31-0.67,0.56-1.36,0.74-2.08c0.18-0.27,0.18-0.56,0-0.87c-0.18-0.31-0.31-0.61-0.4-0.87
		c-0.09,0-0.18,0.02-0.27,0.07c-0.09,0.05-0.18,0.07-0.27,0.07c0,0.45-0.09,0.92-0.27,1.41c-0.18,0.49-0.36,0.96-0.54,1.41
		c-0.18,0.45-0.31,0.94-0.4,1.48C112.86,152.78,112.95,153.36,113.22,153.99z M143.46,46.47c-0.99-0.09-1.9,0.16-2.75,0.74
		c-0.85,0.58-1.5,1.14-1.95,1.68c-0.63,0.81-1.28,1.59-1.95,2.35c-0.67,0.76-1.14,1.64-1.41,2.62c-0.18,0.45-0.49,0.9-0.94,1.34
		c-0.45,0.45-0.9,0.85-1.34,1.21c-0.27,0.18-0.56,0.22-0.87,0.13c-0.32-0.09-0.6-0.13-0.87-0.13c-0.18,0-0.36,0.18-0.54,0.54
		c0.36,0.72,0.58,1.21,0.67,1.48c-1.7,2.42-3.23,4.48-4.57,6.18c-0.36,0.45-0.74,0.85-1.14,1.21c-0.4,0.36-0.87,0.76-1.41,1.21
		c0.18,0.36,0.25,0.79,0.2,1.28c-0.05,0.49-0.47,0.96-1.28,1.41c-0.09-0.36-0.13-0.98-0.13-1.88c-0.72,0.81-1.28,1.55-1.68,2.22
		s-0.11,1.5,0.87,2.49c-0.63-0.09-1.08-0.04-1.34,0.13c-0.27,0.18-0.49,0.43-0.67,0.74c-0.18,0.31-0.36,0.63-0.54,0.94
		c-0.18,0.32-0.45,0.52-0.81,0.6c-0.45,0.18-0.85,0.63-1.21,1.34c-0.36,0.72-0.76,1.34-1.21,1.88c-0.18,0.81-0.36,1.64-0.54,2.49
		c-0.18,0.85-0.4,1.81-0.67,2.89c0.72-0.98,1.3-1.86,1.75-2.62c0.45-0.76,0.89-1.5,1.34-2.22c0.89-1.34,1.75-2.67,2.55-3.96
		c0.81-1.3,1.7-2.57,2.69-3.83c1.16-1.61,2.35-3.2,3.56-4.77c1.21-1.57,2.44-3.11,3.7-4.64c1.79-2.42,3.67-4.81,5.64-7.19
		c1.97-2.37,3.94-4.77,5.91-7.19c0.18-0.18,0.31-0.29,0.4-0.34c0.09-0.04,0.22-0.16,0.4-0.34c0.45-0.45,0.94-0.92,1.48-1.41
		c0.54-0.49,1.03-0.96,1.48-1.41c-0.18-0.18-0.27-0.31-0.27-0.4c-0.54,0.27-1.08,0.52-1.61,0.74c-0.54,0.22-1.03,0.47-1.48,0.74
		c0.09,0.36,0.18,0.67,0.27,0.94C143.28,45.93,143.37,46.2,143.46,46.47z M120.34,133.29c-0.27,0.18-0.58,0.34-0.94,0.47
		c-0.36,0.13-0.54,0.29-0.54,0.47c-0.54,1.34-1.03,2.69-1.48,4.03c-0.45,1.34-0.9,2.73-1.34,4.17c-0.18,0.54-0.29,1.1-0.34,1.68
		c-0.05,0.58-0.16,1.19-0.34,1.81c0.72-0.18,1.3-0.58,1.75-1.21c0.27-0.54,0.49-1.08,0.67-1.61c0.18-0.54,0.36-1.07,0.54-1.61
		c0.27-0.72,0.49-1.43,0.67-2.15c0.18-0.72,0.36-1.43,0.54-2.15c0.09-0.72,0.2-1.39,0.34-2.02c0.13-0.63,0.25-1.3,0.34-2.02
		c0.09-0.36,0.16-0.69,0.2-1.01c0.04-0.31,0.11-0.74,0.2-1.28c-0.45,0.63-0.67,1.03-0.67,1.21
		C119.94,132.26,120.07,132.66,120.34,133.29z M120.21,130.2c0.81-0.27,1.3-0.6,1.48-1.01c0.18-0.4,0.13-0.96-0.13-1.68
		L120.21,130.2z M122.36,124.55c0.18,0,0.31,0.02,0.4,0.07c0.09,0.05,0.22,0.07,0.4,0.07c0.63-0.27,0.85-0.67,0.67-1.21
		c-0.18-0.54-0.27-1.08-0.27-1.61c-0.18,0.45-0.38,0.9-0.6,1.34C122.74,123.66,122.54,124.11,122.36,124.55z M150.04,40.02
		c-0.99,0.18-1.59,0.36-1.81,0.54c-0.22,0.18-0.52,0.72-0.87,1.61c0.45-0.36,0.89-0.69,1.34-1.01
		C149.15,40.85,149.59,40.47,150.04,40.02z"/>
</g>
<g>
</g>
<g>
</g>
<g>
</g>
<g>
</g>
<g>
</g>
<g>
</g>
<g>
</g>
<g>
</g>
<g>
</g>
<g>
</g>
<g>
</g>
<g>
</g>
<g>
</g>
<g>
</g>
<g>
</g>
</svg>
